<?xml version="1.0" standalone="no"?><!DOCTYPE svg PUBLIC "-//W3C//DTD SVG 1.1//EN" "http://www.w3.org/Graphics/SVG/1.1/DTD/svg11.dtd"><svg t="1715237939980" class="icon" viewBox="0 0 1040 1024" version="1.1" xmlns="http://www.w3.org/2000/svg" p-id="3144" data-spm-anchor-id="a313x.search_index.0.i0.74fa3a81XVayDR" xmlns:xlink="http://www.w3.org/1999/xlink" width="203.125" height="200"><path d="M213.648 112C155.2 112 111.984 162.16 113.92 216.544 115.776 268.8 113.36 336.48 96 391.664 78.56 447.04 49.072 482.08 0.96 486.592v50.816c48.128 4.512 77.6 39.568 95.04 94.928 17.36 55.2 19.776 122.864 17.92 175.12C111.984 861.84 155.2 912 213.648 912h598.688c58.432 0 101.664-50.16 99.728-104.544-1.856-52.256 0.56-119.936 17.92-175.12 17.44-55.36 46.832-90.432 94.976-94.928v-50.816c-48.144-4.512-77.536-39.568-94.976-94.928-17.376-55.184-19.776-122.864-17.92-175.12C913.984 162.16 870.784 112 812.32 112H213.632z m481.536 492.448c0 74.896-56.96 120.32-151.488 120.32H382.784c-4.608 0-9.024-1.792-12.272-4.992-3.264-3.2-5.088-7.52-5.088-12.032V316.256c0-4.512 1.824-8.848 5.088-12.032 3.248-3.2 7.68-4.992 12.272-4.992h160c78.816 0 130.56 41.872 130.56 106.16 0 45.12-34.816 85.52-79.136 92.608v2.352c60.352 6.48 100.976 47.488 100.976 104.096zM526.16 353.2H434.4v127.088h77.28c59.744 0 92.672-23.584 92.672-65.76 0-39.52-28.32-61.344-78.192-61.344zM434.4 530.72v140.08h95.136c62.192 0 95.136-24.48 95.136-70.48s-33.872-69.6-99.136-69.6H434.4z" fill="#2c2c2c" p-id="3145"></path></svg>